<svg xmlns="http://www.w3.org/2000/svg" viewBox="0 0 1200 480"><style>@media (prefers-reduced-motion:no-preference){
.steam{animation:steam 3s ease-in-out infinite}@keyframes steam{0%{opacity:0;transform:translateY(8px)}50%{opacity:.8}100%{opacity:0;transform:translateY(-14px)}}
.glow{animation:glow 2.4s ease-in-out infinite}@keyframes glow{50%{opacity:.6}}
.blink{animation:blink 1.6s steps(2) infinite}@keyframes blink{50%{opacity:.2}}
.pulse{animation:pulse 1.8s ease-in-out infinite;transform-box:fill-box;transform-origin:center}@keyframes pulse{50%{transform:scale(1.12)}}
.grow{animation:grow 3.5s ease-out infinite;transform-box:fill-box;transform-origin:left}@keyframes grow{0%{transform:scaleX(0)}40%,100%{transform:scaleX(1)}}
.draw{stroke-dasharray:1400;animation:draw 5s ease-out infinite}@keyframes draw{0%{stroke-dashoffset:1400}60%,100%{stroke-dashoffset:0}}
.flash{animation:flash 3s infinite}@keyframes flash{0%,8%,16%,100%{opacity:1}4%,12%{opacity:.1}60%{opacity:.9}}
.tick{animation:tick 8s steps(8) infinite;transform-box:view-box;transform-origin:var(--o)}@keyframes tick{to{transform:rotate(360deg)}}
.tilt{animation:tilt 4s ease-in-out infinite;transform-box:view-box;transform-origin:880px 100px}@keyframes tilt{50%{transform:rotate(-4deg)}}
.flick{animation:flick 4s infinite}@keyframes flick{0%,30%{opacity:.25}35%,100%{opacity:1}}
.twinkle{animation:twinkle 2.5s ease-in-out infinite}@keyframes twinkle{50%{opacity:.2}}
.check{animation:check 6s infinite;opacity:0}@keyframes check{0%{opacity:0}15%,90%{opacity:1}100%{opacity:0}}
.sway{animation:sway 5s ease-in-out infinite;transform-box:view-box;transform-origin:600px 40px}@keyframes sway{50%{transform:rotate(2deg)}}
.lift{animation:lift 6s ease-in infinite}@keyframes lift{0%,30%{transform:translateY(0)}100%{transform:translateY(-320px)}}
.flame{animation:flame .3s ease-in-out infinite alternate;transform-box:fill-box;transform-origin:top}@keyframes flame{to{transform:scaleY(1.3)}}
.move1{animation:m 4s linear infinite}@keyframes m{0%{opacity:0}20%,80%{opacity:1}100%{opacity:0}}
}</style><rect width="1200" height="480" fill="#16303f"/><rect x="150" y="70" width="190" height="130" rx="10" fill="#1d4052"/><circle cx="245" cy="125" r="26" fill="#8a5a3c"/><path d="M205 190q40-36 80 0" fill="#8a5a3c"/><rect x="360" y="70" width="190" height="130" rx="10" fill="#1d4052"/><circle cx="455" cy="125" r="26" fill="#efc9a6"/><path d="M415 190q40-36 80 0" fill="#efc9a6"/><rect x="570" y="70" width="190" height="130" rx="10" fill="#1d4052"/><circle cx="665" cy="125" r="26" fill="#c08a5f"/><path d="M625 190q40-36 80 0" fill="#c08a5f"/><rect x="150" y="220" width="190" height="130" rx="10" fill="#1d4052"/><circle cx="245" cy="275" r="26" fill="#f3d3bb"/><path d="M205 340q40-36 80 0" fill="#f3d3bb"/><rect x="360" y="220" width="190" height="130" rx="10" fill="#1d4052"/><circle cx="455" cy="275" r="26" fill="#5b3a29"/><path d="M415 340q40-36 80 0" fill="#5b3a29"/><rect x="570" y="220" width="190" height="130" rx="10" fill="#1d4052"/><circle cx="665" cy="275" r="26" fill="#d0a27a"/><path d="M625 340q40-36 80 0" fill="#d0a27a"/><circle cx="880" cy="200" r="70" fill="#f3f1ec"/><path d="M880 200l30 10" stroke="#0f2430" stroke-width="7" stroke-linecap="round"/><path class="tick" style="--o:880px 200px" d="M880 200l0-48" stroke="#0f2430" stroke-width="5" stroke-linecap="round"/><text x="880" y="310" text-anchor="middle" font-family="Arial" font-weight="700" font-size="24" fill="#8dbcd4">DENVER</text><circle cx="1060" cy="200" r="70" fill="#f3f1ec"/><path d="M1060 200l-36 -14" stroke="#0f2430" stroke-width="7" stroke-linecap="round"/><path class="tick" style="--o:1060px 200px" d="M1060 200l0-48" stroke="#0f2430" stroke-width="5" stroke-linecap="round"/><text x="1060" y="310" text-anchor="middle" font-family="Arial" font-weight="700" font-size="24" fill="#8dbcd4">KRAKÓW</text></svg>