<svg xmlns="http://www.w3.org/2000/svg" viewBox="0 0 200 200"><style>@media (prefers-reduced-motion:no-preference){.eyes{animation:bl 8.2s infinite;animation-delay:0.3s;transform-box:fill-box;transform-origin:center}@keyframes bl{0%,94%,100%{transform:scaleY(1)}97%{transform:scaleY(.1)}}.body{animation:br 4.5s ease-in-out infinite;animation-delay:0.3s;transform-origin:100px 200px}@keyframes br{50%{transform:translateY(-2px) scale(1.006)}}}</style><g class="body"><rect width="200" height="200" fill="#16303f"/><circle cx="100" cy="100" r="96" fill="#1d4052"/>
<path d="M40 200c4-34 28-52 60-52s56 18 60 52z" fill="#3d7f86"/><rect x="88" y="126" width="24" height="26" rx="8" fill="#5b3a29"/>
<ellipse cx="66" cy="98" rx="6" ry="9" fill="#5b3a29"/><ellipse cx="134" cy="98" rx="6" ry="9" fill="#5b3a29"/><ellipse cx="100" cy="94" rx="34" ry="42" fill="#5b3a29"/>
<g class="eyes"><circle cx="86" cy="94" r="3.4" fill="#1e1a18"/><circle cx="114" cy="94" r="3.4" fill="#1e1a18"/></g><path d="M79 85q7-4 14 0M107 85q7-4 14 0" stroke="#1e1a18" stroke-opacity=".7" stroke-width="2.5" fill="none" stroke-linecap="round"/>
<path d="M100 98v10q-3 2-6 0" stroke="#000" stroke-opacity=".25" stroke-width="2" fill="none"/><path d="M92 120h16" stroke="#5a2e2e" stroke-width="3" stroke-linecap="round"/><g fill="#9a9da3"><circle cx="76" cy="62" r="13"/><circle cx="92" cy="52" r="13"/><circle cx="108" cy="52" r="13"/><circle cx="124" cy="62" r="13"/><circle cx="70" cy="78" r="9"/><circle cx="130" cy="78" r="9"/></g><g fill="none" stroke="#2b2b2b" stroke-width="2.5"><circle cx="86" cy="94" r="8"/><circle cx="114" cy="94" r="8"/><path d="M94 94h12"/></g><path d="M78 96q-8 30 10 46M122 96q8 30-10 46" fill="none" stroke="#c9a35a" stroke-width="1.5" stroke-dasharray="2 2"/></g></svg>