<svg xmlns="http://www.w3.org/2000/svg" viewBox="0 0 200 200"><style>@media (prefers-reduced-motion:no-preference){.eyes{animation:bl 8.1s infinite;animation-delay:0.3s;transform-box:fill-box;transform-origin:center}@keyframes bl{0%,94%,100%{transform:scaleY(1)}97%{transform:scaleY(.1)}}.body{animation:br 4.5s ease-in-out infinite;animation-delay:0.3s;transform-origin:100px 200px}@keyframes br{50%{transform:translateY(-2px) scale(1.006)}}}</style><g class="body"><rect width="200" height="200" fill="#16303f"/><circle cx="100" cy="100" r="96" fill="#1d4052"/>
<path d="M40 200c4-34 28-52 60-52s56 18 60 52z" fill="#22252b"/><rect x="88" y="126" width="24" height="26" rx="8" fill="#c08a5f"/>
<ellipse cx="66" cy="98" rx="6" ry="9" fill="#c08a5f"/><ellipse cx="134" cy="98" rx="6" ry="9" fill="#c08a5f"/><ellipse cx="100" cy="94" rx="34" ry="42" fill="#c08a5f"/>
<g class="eyes"><circle cx="86" cy="94" r="3.4" fill="#1e1a18"/><circle cx="114" cy="94" r="3.4" fill="#1e1a18"/></g><path d="M79 85q7-4 14 0M107 85q7-4 14 0" stroke="#1e1a18" stroke-opacity=".7" stroke-width="2.5" fill="none" stroke-linecap="round"/>
<path d="M100 98v10q-3 2-6 0" stroke="#000" stroke-opacity=".25" stroke-width="2" fill="none"/><path d="M92 120h16" stroke="#5a2e2e" stroke-width="3" stroke-linecap="round"/><path d="M62 86c-4-32 14-50 38-50s42 18 38 50c-4-12-12-20-20-24-10 2-26 2-38-2-8 6-14 14-18 26z" fill="#eceae6"/><g fill="none" stroke="#333" stroke-width="2.5"><path d="M76 97h19q-2 8-9 8t-10-8zM105 97h19q-2 8-9 8t-10-8zM95 98h10"/></g></g></svg>