<svg xmlns="http://www.w3.org/2000/svg" viewBox="0 0 200 200"><rect width="200" height="200" fill="#16303f"/><circle cx="100" cy="100" r="96" fill="#1d4052"/>
<g fill="#1e1a18"><path d="M64 86c-4-30 14-48 36-48s40 18 36 48c-8-14-22-22-36-22s-28 8-36 22z"/><path d="M130 66c14 8 16 40 8 64h-8c4-20 4-40 0-54zM70 66c-14 8-16 40-8 64h8c-4-20-4-40 0-54z"/></g><path d="M40 200c4-34 28-52 60-52s56 18 60 52z" fill="#2a3f6a"/><path d="M60 200l18-52 22 30 22-30 18 52z" fill="#000" opacity=".22"/><rect x="88" y="126" width="24" height="26" rx="8" fill="#5b3a29"/>
<ellipse cx="66" cy="98" rx="6" ry="9" fill="#5b3a29"/><ellipse cx="134" cy="98" rx="6" ry="9" fill="#5b3a29"/><ellipse cx="100" cy="94" rx="34" ry="42" fill="#5b3a29"/>
<circle cx="86" cy="94" r="3.4" fill="#1e1a18"/><circle cx="114" cy="94" r="3.4" fill="#1e1a18"/><path d="M79 85q7-4 14 0M107 85q7-4 14 0" stroke="#1e1a18" stroke-opacity=".7" stroke-width="2.5" fill="none" stroke-linecap="round"/>
<path d="M100 98v10q-3 2-6 0" stroke="#000" stroke-opacity=".25" stroke-width="2" fill="none"/><path d="M90 118q10 8 20 0" stroke="#5a2e2e" stroke-width="3" fill="none" stroke-linecap="round"/></svg>